<?xml version="1.0" encoding="utf-8"?>
<!-- Generator: Adobe Illustrator 17.0.0, SVG Export Plug-In . SVG Version: 6.00 Build 0)  -->
<!DOCTYPE svg PUBLIC "-//W3C//DTD SVG 1.1//EN" "http://www.w3.org/Graphics/SVG/1.1/DTD/svg11.dtd">
<svg version="1.1" xmlns="http://www.w3.org/2000/svg" xmlns:xlink="http://www.w3.org/1999/xlink" x="0px" y="0px"
	 width="283.828px" height="286.709px" viewBox="0 0 283.828 286.709" enable-background="new 0 0 283.828 286.709"
	 xml:space="preserve">
<g id="Vrstva_1">
	<g>
		<linearGradient id="SVGID_1_" gradientUnits="userSpaceOnUse" x1="140.8436" y1="126.6642" x2="140.8436" y2="3.067068e-06">
			<stop  offset="0" style="stop-color:#EB5946"/>
			<stop  offset="1" style="stop-color:#E8346A"/>
		</linearGradient>
		<path fill="url(#SVGID_1_)" d="M77.089,126.619c1.485,0.139,2.693-0.038,3.762-0.635c-5.6-30.15,3.256-62.456,26.578-85.778
			c24.167-24.167,57.981-32.804,89.046-25.915c5.841-2.694,11.835-5.06,17.989-7.079c-38.73-14.889-84.288-6.723-115.52,24.509
			c-25.639,25.64-35.733,60.934-30.29,94.18C71.467,126.125,74.279,126.356,77.089,126.619z"/>
		<linearGradient id="SVGID_2_" gradientUnits="userSpaceOnUse" x1="221.2735" y1="216.6126" x2="221.2735" y2="72.2589">
			<stop  offset="0" style="stop-color:#EB5946"/>
			<stop  offset="1" style="stop-color:#E8346A"/>
		</linearGradient>
		<path fill="url(#SVGID_2_)" d="M277.668,72.259c-0.717,2.097-1.464,4.186-2.26,6.259c-1.574,4.101-3.304,8.155-5.202,12.162
			c5.587,30.138-3.256,62.423-26.568,85.736c-22.685,22.685-53.868,31.674-83.301,26.995c-1.205,1.321-1.807,2.839-1.567,5.075
			c0.192,1.78,0.331,3.568,0.454,5.358c0.035,0.518,0.066,1.036,0.099,1.555c32.84,4.946,67.515-5.212,92.8-30.497
			C282.588,154.437,291.085,110.35,277.668,72.259z"/>
		<linearGradient id="SVGID_3_" gradientUnits="userSpaceOnUse" x1="145.3781" y1="276.0377" x2="145.3781" y2="3.7977">
			<stop  offset="0" style="stop-color:#EB5946"/>
			<stop  offset="1" style="stop-color:#E8346A"/>
		</linearGradient>
		<path fill="url(#SVGID_3_)" d="M154.699,195.035c6.342-4.969,12.751-9.869,18.873-15.1c16.101-13.758,32.067-27.674,48.082-41.532
			c14.055-12.162,25.636-26.391,34.969-42.42c2.37-4.07,4.532-8.196,6.512-12.375c1.898-4.006,3.628-8.061,5.202-12.162
			c0.796-2.074,1.543-4.162,2.26-6.259c1.007-2.945,1.947-5.911,2.799-8.904c4.78-16.78,7.251-34.293,8.065-52.486
			c-1.65,0.143-2.843,0.204-4.023,0.356c-11.582,1.491-23.282,2.388-34.721,4.62c-7.25,1.415-14.311,3.254-21.183,5.508
			c-6.153,2.019-12.147,4.385-17.989,7.079c-13.274,6.121-25.74,13.971-37.338,23.589c-15.193,12.597-27.695,27.807-40.461,42.7
			c-12.287,14.334-24.034,29.132-35.957,43.776c-0.591,0.725-1.203,1.257-1.868,1.629c-1.069,0.597-2.277,0.775-3.762,0.635
			c-2.81-0.263-5.622-0.495-8.435-0.719c-6.198-0.494-12.399-0.943-18.586-1.548c-4.871-0.477-9.415,0.255-13.523,2.827
			c-3.146,1.969-6.39,3.971-9.017,6.544c-7.91,7.746-15.544,15.776-23.273,23.706c-0.502,0.515-0.927,1.111-1.351,1.695
			c-1.266,1.742-0.707,2.936,1.206,3.555c1.022,0.331,2.114,0.445,3.175,0.654c11.93,2.357,23.845,4.795,35.802,7.011
			c2.896,0.537,3.834,2.209,3.104,4.521c-1.181,3.738-2.49,7.55-4.481,10.892c-3.732,6.263-3.335,12.032,0.671,17.878
			c6.328,9.233,14.291,16.879,23,23.794c6.988,5.548,14.159,6.39,21.903,1.187c2.608-1.752,5.868-2.675,8.953-3.532
			c2.508-0.697,4.181,0.26,4.734,3.293c2.226,12.198,4.654,24.361,7.117,36.514c0.289,1.429,1.252,2.721,1.903,4.076
			c1.246-0.612,2.743-0.962,3.697-1.878c8.076-7.752,16.262-15.407,23.996-23.492c6.715-7.02,10.743-15.087,9.005-25.492
			c-0.309-1.848-0.535-3.71-0.718-5.579c-0.366-3.739-0.552-7.507-0.789-11.27c-0.033-0.518-0.063-1.037-0.098-1.555
			c-0.122-1.79-0.262-3.577-0.454-5.358c-0.241-2.236,0.361-3.755,1.567-5.076C153.678,195.888,154.157,195.46,154.699,195.035z
			 M176.496,76.845c9.062-9.002,22.875-8.875,32.005,0.294c9.043,9.081,8.971,22.886-0.167,32.005
			c-9.092,9.075-22.904,9.058-32.005-0.039C167.113,99.894,167.184,86.095,176.496,76.845z"/>
		<linearGradient id="SVGID_4_" gradientUnits="userSpaceOnUse" x1="41.0132" y1="286.7094" x2="41.0132" y2="204.6831">
			<stop  offset="0" style="stop-color:#EB5946"/>
			<stop  offset="1" style="stop-color:#E8346A"/>
		</linearGradient>
		<path fill="url(#SVGID_4_)" d="M22.208,264.501c0,0-6.217-35.212,15.583-59.818c0,0-50.839,33.684-34.586,78.821
			c45.137,16.253,78.821-34.586,78.821-34.586C57.42,270.719,22.208,264.501,22.208,264.501z"/>
	</g>
</g>
<g id="Vrstva_2">
</g>
</svg>
